<svg width="16" height="16" viewBox="0 0 16 16" fill="none" xmlns="http://www.w3.org/2000/svg">
<path d="M9.99998 15.1667H5.99998C2.37998 15.1667 0.833313 13.62 0.833313 10V6.00001C0.833313 2.38001 2.37998 0.833344 5.99998 0.833344H9.99998C13.62 0.833344 15.1666 2.38001 15.1666 6.00001V10C15.1666 13.62 13.62 15.1667 9.99998 15.1667ZM5.99998 1.83334C2.92665 1.83334 1.83331 2.92668 1.83331 6.00001V10C1.83331 13.0733 2.92665 14.1667 5.99998 14.1667H9.99998C13.0733 14.1667 14.1666 13.0733 14.1666 10V6.00001C14.1666 2.92668 13.0733 1.83334 9.99998 1.83334H5.99998Z" fill="#4B5259"/>
<path d="M6.45335 11.1866H5.46002C4.74669 11.1866 4.16669 10.6066 4.16669 9.89331V8.11328C4.16669 7.83995 4.39335 7.61328 4.66669 7.61328H6.45335C7.18002 7.61328 7.74669 8.17995 7.74669 8.90662V9.89994C7.74002 10.6133 7.17335 11.1866 6.45335 11.1866ZM5.16669 8.60661V9.88664C5.16669 10.0466 5.30002 10.18 5.46002 10.18H6.45335C6.66669 10.18 6.74669 10.02 6.74669 9.88664V8.89331C6.74669 8.75998 6.67335 8.59998 6.45335 8.59998H5.16669V8.60661Z" fill="#4B5259"/>
<path d="M4.66669 8.60664C4.39335 8.60664 4.16669 8.37998 4.16669 8.10664C4.16669 6.05331 4.61335 5.59334 5.80669 4.88667C6.04002 4.74667 6.35335 4.82668 6.49335 5.06001C6.63335 5.29334 6.55336 5.60666 6.32002 5.74666C5.41336 6.28666 5.16669 6.42664 5.16669 8.10664C5.16669 8.38664 4.94002 8.60664 4.66669 8.60664Z" fill="#4B5259"/>
<path d="M10.5399 11.1866H9.54657C8.83324 11.1866 8.25323 10.6066 8.25323 9.89331V8.11328C8.25323 7.83995 8.4799 7.61328 8.75323 7.61328H10.5399C11.2666 7.61328 11.8332 8.17995 11.8332 8.90662V9.89994C11.8332 10.6133 11.2666 11.1866 10.5399 11.1866ZM9.2599 8.60661V9.88664C9.2599 10.0466 9.39324 10.18 9.55324 10.18H10.5466C10.7599 10.18 10.8399 10.02 10.8399 9.88664V8.89331C10.8399 8.75998 10.7666 8.59998 10.5466 8.59998H9.2599V8.60661Z" fill="#4B5259"/>
<path d="M8.76007 8.60664C8.48674 8.60664 8.26007 8.37998 8.26007 8.10664C8.26007 6.05331 8.70674 5.59334 9.90007 4.88667C10.1401 4.74667 10.4467 4.82668 10.5867 5.06001C10.7267 5.29334 10.6467 5.60666 10.4134 5.74666C9.50674 6.28666 9.26007 6.42664 9.26007 8.10664C9.26007 8.38664 9.0334 8.60664 8.76007 8.60664Z" fill="#4B5259"/>
</svg>
